<?xml version="1.0" encoding="UTF-8" standalone="no"?>
<!DOCTYPE svg PUBLIC "-//W3C//DTD SVG 1.1//EN" "http://www.w3.org/Graphics/SVG/1.1/DTD/svg11.dtd">
<!-- Created with Vectornator (http://vectornator.io/) -->
<svg height="100%" stroke-miterlimit="10" style="fill-rule:nonzero;clip-rule:evenodd;stroke-linecap:round;stroke-linejoin:round;" version="1.1" viewBox="0 0 841.995 307.893" width="100%" xml:space="preserve" xmlns="http://www.w3.org/2000/svg" xmlns:vectornator="http://vectornator.io" xmlns:xlink="http://www.w3.org/1999/xlink">
<defs>
<path d="M166.747 240.859C166.747 211.796 190.229 188.587 219.195 188.587C248.161 188.587 271.642 211.796 271.642 240.859C271.642 269.922 248.161 293.482 219.195 293.482C190.229 293.482 166.747 269.922 166.747 240.859Z" id="Fill"/>
<filter color-interpolation-filters="sRGB" filterUnits="userSpaceOnUse" height="117.395" id="Filter" width="117.395" x="160.497" y="187.337">
<feDropShadow dx="3.06162e-16" dy="5" flood-color="#000000" flood-opacity="0.367117" in="SourceGraphic" result="Shadow" stdDeviation="2.5"/>
</filter>
<path d="M188.231 240.933C188.231 223.47 202.208 209.516 219.45 209.516C236.691 209.516 250.668 223.47 250.668 240.933C250.668 258.396 236.691 272.552 219.45 272.552C202.208 272.552 188.231 258.396 188.231 240.933Z" id="Fill_2"/>
<path d="M574.287 240.759C574.287 211.891 597.769 188.135 626.735 188.135C655.701 188.135 679.182 211.891 679.182 240.759C679.182 269.628 655.701 293.03 626.735 293.03C597.769 293.03 574.287 269.628 574.287 240.759Z" id="Fill_3"/>
<filter color-interpolation-filters="sRGB" filterUnits="userSpaceOnUse" height="117.395" id="Filter_2" width="117.395" x="568.037" y="186.885">
<feComponentTransfer in="SourceGraphic" result="Alpha">
<feFuncA slope="0.99569" type="linear"/>
</feComponentTransfer>
<feDropShadow dx="3.06162e-16" dy="5" flood-color="#000000" flood-opacity="0.367117" in="Alpha" result="Shadow" stdDeviation="2.5"/>
</filter>
<path d="M595.516 240.685C595.516 223.339 609.493 209.073 626.735 209.073C643.976 209.073 657.953 223.339 657.953 240.685C657.953 258.031 643.976 272.092 626.735 272.092C609.493 272.092 595.516 258.031 595.516 240.685Z" id="Fill_4"/>
<linearGradient gradientTransform="matrix(1 0 0 1 -2.25505 -124.028)" gradientUnits="userSpaceOnUse" id="LinearGradient" x1="407.583" x2="400.488" y1="46.102" y2="884.077">
<stop offset="0.147917" stop-color="#0047b6"/>
<stop offset="1" stop-color="#000000"/>
</linearGradient>
<linearGradient gradientTransform="matrix(1 0 0 1 -162.49 -253.536)" gradientUnits="userSpaceOnUse" id="LinearGradient_2" x1="413.105" x2="407.52" y1="374.089" y2="951.003">
<stop offset="0" stop-color="#000000" stop-opacity="0"/>
<stop offset="1" stop-color="#000000"/>
</linearGradient>
<linearGradient gradientTransform="matrix(1 0 0 1 -2.25505 -124.028)" gradientUnits="userSpaceOnUse" id="LinearGradient_3" x1="353.406" x2="246.153" y1="327.807" y2="476.666">
<stop offset="0" stop-color="#00c0ff"/>
<stop offset="1" stop-color="#0047b6"/>
</linearGradient>
<linearGradient gradientTransform="matrix(1 0 0 1 -2.25505 -124.028)" gradientUnits="userSpaceOnUse" id="LinearGradient_4" x1="174.131" x2="66.8788" y1="327.878" y2="476.738">
<stop offset="0" stop-color="#00c0ff"/>
<stop offset="1" stop-color="#0047b6"/>
</linearGradient>
<linearGradient gradientTransform="matrix(1 0 0 1 -3.90799e-14 2.84217e-14)" gradientUnits="userSpaceOnUse" id="LinearGradient_5" x1="649.997" x2="413.597" y1="231.894" y2="615.479">
<stop offset="0.1875" stop-color="#19bf7a"/>
<stop offset="1" stop-color="#0b5838"/>
</linearGradient>
<linearGradient gradientTransform="matrix(1 0 0 1 -2.25505 -124.028)" gradientUnits="userSpaceOnUse" id="LinearGradient_6" x1="436.2" x2="328.947" y1="330.623" y2="479.483">
<stop offset="0" stop-color="#00c0ff"/>
<stop offset="1" stop-color="#0047b6"/>
</linearGradient>
</defs>
<clipPath id="ArtboardFrame">
<rect height="307.893" width="841.995" x="0" y="0"/>
</clipPath>
<g clip-path="url(#ArtboardFrame)" id="Layer-2" vectornator:layerName="Layer 2">
<path d="M406.276 49.6287C412.871 99.872 414.557 117.379 414.557 117.379C414.558 117.379 533.534 122.974 558.151 124.16C556.816 101.471 472.721 49.8643 406.276 49.6287Z" fill="#e6e6e6" fill-opacity="0.671098" fill-rule="nonzero" opacity="1" stroke="none"/>
<path d="M367.401 49.1912C295.965 50.8421 245.417 98.3776 241.307 113.41C261.977 113.785 388.745 115.879 388.745 115.879C388.745 115.879 383.969 72.5529 381.964 49.5037C377.024 49.1828 372.164 49.0811 367.401 49.1912Z" fill="#e6e6e6" fill-opacity="0.671098" fill-rule="nonzero" opacity="1" stroke="none"/>
<g filter="url(#Filter)" vectornator:layerName="(oval)" vectornator:shadowAngle="1.5708" vectornator:shadowColor="#000000" vectornator:shadowOffset="5" vectornator:shadowOpacity="0.367117" vectornator:shadowRadius="5">
<use fill="#000000" fill-rule="nonzero" stroke="none" xlink:href="#Fill"/>
<mask height="104.895" id="StrokeMask" maskUnits="userSpaceOnUse" width="104.895" x="166.747" y="188.587">
<rect fill="#000000" height="104.895" stroke="none" width="104.895" x="166.747" y="188.587"/>
<use fill="#ffffff" fill-rule="evenodd" stroke="none" xlink:href="#Fill"/>
</mask>
<use fill="none" mask="url(#StrokeMask)" stroke="#000000" stroke-linecap="butt" stroke-linejoin="miter" stroke-width="8" xlink:href="#Fill"/>
</g>
<g opacity="0">
<path d="M434.622 57.2675C265.528 59.1477 227.934 200.016 200.945 207.587C105.954 234.236 158.188 339.871 158.188 339.871C158.188 339.871 229.108 341.205 460.207 341.205C691.305 341.205 773.983 337.194 773.983 337.194C773.983 337.194 801.563 340.221 800.968 280.258C800.608 244.068 789.797 232.341 773.849 220.336C751.127 203.232 718.626 194.1 698.512 193.664C662.61 192.886 656.769 162.513 602.881 114.97C551.964 70.0467 487.12 56.6838 434.622 57.2675ZM457.465 86.584C474.155 85.8401 490.306 87.3098 505.586 90.7308C559.141 102.722 602.319 140.847 619.53 188.846C545.32 188.919 530.307 188.274 465.556 190.771C459.747 116.261 461.013 131.776 457.465 86.584ZM427.647 86.3098C424.796 104.026 422.176 122.504 412.385 189.604C348.519 189.298 317.1 189.107 283.871 190.094C296.14 85.2724 410.454 86.2377 427.647 86.3098Z" fill="#0047b6" fill-rule="nonzero" opacity="0.99569" stroke="none"/>
<path d="M771.725 220.528C755.416 220.528 736.134 226.333 735.873 234.982C735.635 242.857 746.569 259.471 756.347 259.471C766.125 259.471 799.201 262.969 799.186 253.492C799.164 239.818 788.034 220.528 771.725 220.528Z" fill="#fdd44f" fill-rule="nonzero" opacity="1" stroke="none"/>
<path d="M178.842 215.306C174.963 265.655 172.658 269.902 143.366 266.091C140.286 251.934 144.654 215.923 178.842 215.306Z" fill="#d21034" fill-rule="nonzero" opacity="0.99569" stroke="none"/>
</g>
<g opacity="0" vectornator:layerName="Group">
<path d="M584.454 339.861C584.454 294.648 616.283 257.996 655.546 257.996C694.809 257.996 726.638 294.648 726.638 339.861C726.638 385.073 694.809 421.726 655.546 421.726C616.283 421.726 584.454 385.073 584.454 339.861Z" fill="#000000" fill-rule="nonzero" opacity="0.99569" stroke="#000000" stroke-linecap="butt" stroke-linejoin="round" stroke-width="2.4789"/>
<path d="M612.768 339.505C612.768 312.339 631.714 290.315 655.085 290.315C678.456 290.315 697.401 312.339 697.401 339.505C697.401 366.672 678.456 388.695 655.085 388.695C631.714 388.695 612.768 366.672 612.768 339.505Z" fill="#535353" fill-rule="nonzero" opacity="0.99569" stroke="#000000" stroke-linecap="butt" stroke-linejoin="round" stroke-width="2.4789"/>
</g>
<g opacity="0.99569" vectornator:layerName="(oval)">
<use fill="#535353" fill-rule="nonzero" stroke="none" xlink:href="#Fill_2"/>
<mask height="63.0363" id="StrokeMask_2" maskUnits="userSpaceOnUse" width="62.4375" x="188.231" y="209.516">
<rect fill="#000000" height="63.0363" stroke="none" width="62.4375" x="188.231" y="209.516"/>
<use fill="#ffffff" fill-rule="evenodd" stroke="none" xlink:href="#Fill_2"/>
</mask>
<use fill="none" mask="url(#StrokeMask_2)" stroke="#2b2b2b" stroke-linecap="butt" stroke-linejoin="round" stroke-width="4.9578" xlink:href="#Fill_2"/>
</g>
<g filter="url(#Filter_2)" vectornator:layerName="(oval)" vectornator:shadowAngle="1.5708" vectornator:shadowColor="#000000" vectornator:shadowOffset="5" vectornator:shadowOpacity="0.367117" vectornator:shadowRadius="5">
<use fill="#000000" fill-rule="nonzero" stroke="none" xlink:href="#Fill_3"/>
<mask height="104.895" id="StrokeMask_3" maskUnits="userSpaceOnUse" width="104.895" x="574.287" y="188.135">
<rect fill="#000000" height="104.895" stroke="none" width="104.895" x="574.287" y="188.135"/>
<use fill="#ffffff" fill-rule="evenodd" stroke="none" xlink:href="#Fill_3"/>
</mask>
<use fill="none" mask="url(#StrokeMask_3)" stroke="#000000" stroke-linecap="butt" stroke-linejoin="miter" stroke-width="8" xlink:href="#Fill_3"/>
</g>
<g opacity="0.99569" vectornator:layerName="(oval)">
<use fill="#535353" fill-rule="nonzero" stroke="none" xlink:href="#Fill_4"/>
<mask height="63.0197" id="StrokeMask_4" maskUnits="userSpaceOnUse" width="62.4375" x="595.516" y="209.073">
<rect fill="#000000" height="63.0197" stroke="none" width="62.4375" x="595.516" y="209.073"/>
<use fill="#ffffff" fill-rule="evenodd" stroke="none" xlink:href="#Fill_4"/>
</mask>
<use fill="none" mask="url(#StrokeMask_4)" stroke="#2b2b2b" stroke-linecap="butt" stroke-linejoin="round" stroke-width="4.9578" xlink:href="#Fill_4"/>
</g>
<path d="M373.776 21.0974C311.256 20.6593 271.832 42.0144 248.682 60.1599C205.681 93.8667 186.946 103.102 170.37 109.566C138.203 122.11 114.128 112.06 112.901 197.472C111.686 282.083 132.82 275.464 164.807 275.941C137.078 233.545 166.574 177.035 219.776 177.035C272.979 177.035 301.523 235.458 274.089 275.816C366.335 275.612 486.127 275.693 572.807 275.629C544.186 231.789 575.71 176.91 626.995 176.91C678.28 176.91 708.261 234.848 680.62 275.879C707.043 275.803 716.83 278.43 731.745 261.597C746.66 244.765 745.138 208.636 742.839 192.191C737.438 153.57 696.128 132.052 630.214 126.035C597.929 123.088 574.315 83.5589 522.182 57.3474C481.434 36.8597 438.652 21.5521 373.776 21.0974ZM367.401 49.1912C372.164 49.0811 377.024 49.1828 381.964 49.5037C383.969 72.5529 388.745 115.879 388.745 115.879C388.745 115.879 261.977 113.785 241.307 113.41C245.417 98.3776 295.965 50.842 367.401 49.1912ZM406.276 49.6287C472.721 49.8643 556.816 101.471 558.151 124.16C533.534 122.974 414.557 117.379 414.557 117.379C414.557 117.379 412.871 99.872 406.276 49.6287Z" fill="url(#LinearGradient)" fill-rule="nonzero" opacity="1" stroke="none"/>
<path d="M126.948 129.673C137.044 128.945 158.153 130.573 160.34 135.022C163.378 141.201 151.498 153.084 146.388 157.316C141.278 161.548 128.332 162.717 115.748 159.884C118.137 144.897 121.876 135.775 126.948 129.673Z" fill="#d21034" fill-rule="nonzero" opacity="0.99569" stroke="none"/>
<path d="M166.747 240.859C166.747 211.796 190.229 188.587 219.195 188.587C248.161 188.587 271.642 211.796 271.642 240.859C271.642 269.922 248.161 293.482 219.195 293.482C190.229 293.482 166.747 269.922 166.747 240.859Z" fill="url(#LinearGradient_2)" fill-rule="nonzero" opacity="1" stroke="none" vectornator:layerName="(oval)"/>
<path d="M313.25 289.108L359.311 211.819L333.287 211.821L312.53 246.742L292.676 211.824L266.348 211.826C313.316 289.772 313.25 289.108 313.25 289.108Z" fill="url(#LinearGradient_3)" fill-rule="nonzero" opacity="1" stroke="none"/>
<path d="M313.25 289.108L359.311 211.819L333.287 211.821L312.53 246.742L292.676 211.824L266.348 211.826C313.316 289.772 313.25 289.108 313.25 289.108Z" fill="#00c0ff" fill-rule="nonzero" opacity="1" stroke="none"/>
<path d="M87.0733 289.062C87.0733 289.062 87.6164 226.8 87.7142 212.521C95.1735 212.577 96.6004 212.634 106.486 212.702C106.534 216.167 106.577 217.015 106.572 217.68C111.934 213.656 120.486 211.755 131.037 211.898C148.159 212.128 155.993 223.769 158.903 228.095C162.247 233.066 164.857 243.254 164.752 258.594C164.647 273.935 164.411 289.593 164.414 289.063C151.834 289.027 147.601 289.085 142.351 289.063C142.722 262.367 142.375 271.244 142.473 256.899C142.571 242.554 135.733 236.213 128.412 236.163C121.092 236.113 111.486 238.574 111.363 256.571C111.24 274.569 111.235 279.367 111.168 289.062C97.0886 289.166 87.0733 289.062 87.0733 289.062Z" fill="url(#LinearGradient_4)" fill-rule="nonzero" opacity="1" stroke="none" vectornator:layerName="path"/>
<path d="M87.0733 289.062C87.0733 289.062 87.6164 226.8 87.7142 212.521C95.1735 212.577 96.6004 212.634 106.486 212.702C106.534 216.167 106.577 217.015 106.572 217.68C111.934 213.656 120.486 211.755 131.037 211.898C148.159 212.128 155.993 223.769 158.903 228.095C162.247 233.066 164.857 243.254 164.752 258.594C164.647 273.935 164.411 289.593 164.414 289.063C151.834 289.027 147.601 289.085 142.351 289.063C142.722 262.367 142.375 271.244 142.473 256.899C142.571 242.554 135.733 236.213 128.412 236.163C121.092 236.113 111.486 238.574 111.363 256.571C111.24 274.569 111.235 279.367 111.168 289.062C97.0886 289.166 87.0733 289.062 87.0733 289.062Z" fill="#00c0ff" fill-rule="nonzero" opacity="1" stroke="none" vectornator:layerName="path"/>
<path d="M531.312 291.438C527.39 291.377 523.402 291.749 519.437 292.594C511.506 294.284 504.314 297.703 498.156 302.406C492.001 307.108 486.884 313.084 483 319.875C479.116 326.666 476.456 334.28 475.219 342.344C473.982 350.409 474.159 358.919 475.969 367.469C477.779 376.022 481.072 383.856 485.469 390.719C489.864 397.58 495.355 403.471 501.656 408.094C507.954 412.714 515.061 416.089 522.594 417.875C530.049 419.643 536.477 419.964 544.406 418.875C552.249 417.798 557.78 414.901 562.187 411.875C566.323 409.036 571.379 404.806 576 398.281C578.462 394.805 582.219 388.75 582.219 388.75L584.812 398.886L603.108 394.235L587.687 349.697L542.563 363.375L548.364 382.686L558.469 379.563C558.469 379.563 552.653 386.612 550.406 388.344C548.507 389.809 545.139 390.779 540.437 390.938C536.219 391.079 532.089 390.549 528.062 389.594C524.183 388.674 520.438 386.905 517.031 384.406C513.626 381.908 510.574 378.666 508.125 374.844C505.678 371.023 503.843 366.617 502.812 361.75C501.782 356.882 501.655 352.114 502.344 347.625C503.033 343.135 504.525 338.954 506.625 335.281C508.727 331.605 511.421 328.454 514.594 326.031C517.773 323.603 521.403 321.86 525.438 321C529.473 320.14 533.486 320.265 537.375 321.188C541.272 322.111 549.469 325.219 549.469 325.219L551.25 325.906L552.031 324.156C554.355 318.836 558.989 308.195 561.312 302.875L562.031 301.219L560.469 300.344C560.405 300.308 550.582 294.702 542.875 292.875C539.112 291.983 535.239 291.498 531.312 291.438Z" fill="#19bf7a" fill-rule="nonzero" opacity="0" stroke="none"/>
<path d="M530.873 298.932C527.098 298.874 523.285 299.234 519.468 300.047C511.836 301.674 504.916 304.972 498.983 309.504C493.05 314.035 488.094 319.788 484.337 326.359C480.579 332.931 477.999 340.334 476.798 348.161C475.597 355.988 475.778 364.237 477.538 372.551C479.298 380.866 482.497 388.49 486.765 395.152C491.032 401.813 496.359 407.512 502.455 411.984C508.55 416.455 515.412 419.711 522.668 421.431C529.925 423.152 536 423.458 543.731 422.397C551.214 421.369 556.406 418.649 560.658 415.73C564.655 412.986 569.511 408.924 573.969 402.629C578.487 396.248 582.48 389.196 582.48 389.196L585.998 401.787L602.329 396.781L589.224 349.154L544.623 369.855L552.195 385.883C552.195 385.883 552.923 385.203 562.878 380.44C559.402 388.314 554.516 392.913 551.249 395.432C548.824 397.302 545.001 398.289 540.105 398.453C535.666 398.603 531.359 398.018 527.204 397.032C523.051 396.048 519.063 394.178 515.452 391.53C511.842 388.881 508.623 385.462 506.045 381.437C503.466 377.411 501.532 372.774 500.453 367.675C499.373 362.575 499.259 357.562 499.985 352.832C500.71 348.101 502.277 343.666 504.502 339.776C506.726 335.886 509.593 332.548 512.993 329.952C516.39 327.357 520.298 325.477 524.636 324.552C528.974 323.628 533.292 323.749 537.448 324.735C541.607 325.721 549.796 328.865 549.796 328.865L559.09 307.584C559.09 307.584 549.271 302.057 542.015 300.336C538.387 299.476 534.647 298.99 530.873 298.932Z" fill="url(#LinearGradient_5)" fill-rule="nonzero" opacity="0" stroke="none" vectornator:layerName="Curve"/>
<path d="M528.618 174.904C524.843 174.846 521.03 175.206 517.213 176.02C509.581 177.646 502.661 180.945 496.728 185.476C490.795 190.008 485.839 195.761 482.082 202.331C478.324 208.903 475.743 216.307 474.543 224.133C473.342 231.961 473.523 240.209 475.283 248.524C477.043 256.838 480.242 264.463 484.51 271.125C488.777 277.786 494.104 283.485 500.2 287.956C506.294 292.427 513.157 295.683 520.413 297.404C527.67 299.124 533.745 299.431 541.476 298.369C548.959 297.342 554.151 294.622 558.403 291.703C562.4 288.959 567.256 284.896 571.714 278.601C576.232 272.221 580.225 265.169 580.225 265.169L583.743 277.76L600.074 272.753L586.969 225.127L542.368 245.828L549.94 261.855C549.94 261.855 550.668 261.176 560.623 256.413C557.147 264.286 552.261 268.885 548.994 271.404C546.568 273.275 542.746 274.261 537.85 274.426C533.411 274.575 529.104 273.99 524.949 273.005C520.796 272.02 516.808 270.151 513.197 267.502C509.587 264.854 506.368 261.435 503.789 257.409C501.211 253.384 499.277 248.747 498.198 243.647C497.118 238.547 497.004 233.534 497.729 228.804C498.455 224.073 500.022 219.638 502.247 215.749C504.471 211.858 507.338 208.52 510.738 205.924C514.135 203.329 518.043 201.449 522.381 200.525C526.718 199.6 531.036 199.722 535.193 200.707C539.352 201.693 547.541 204.837 547.541 204.837L556.835 183.557C556.835 183.557 547.016 178.029 539.76 176.309C536.132 175.449 532.392 174.963 528.618 174.904Z" fill="#19bf7a" fill-rule="nonzero" opacity="1" stroke="none" vectornator:layerName="Curve"/>
<path d="M403.395 214.635L403.363 220.5C397.915 216.946 391.515 214.832 384.624 214.832C365.022 214.832 349.142 231.447 349.142 251.954C349.142 272.461 365.022 289.108 384.624 289.108C391.312 289.108 397.504 287.038 402.847 283.67L402.815 288.289L423.003 288.289L423.615 214.635L403.395 214.635ZM384.624 235.047C393.552 235.047 400.819 242.645 400.819 251.987C400.819 261.328 393.552 268.893 384.624 268.893C375.695 268.893 368.46 261.328 368.46 251.987C368.46 242.645 375.695 235.047 384.624 235.047Z" fill="url(#LinearGradient_6)" fill-rule="nonzero" opacity="1" stroke="none"/>
<path d="M403.395 214.635L403.363 220.5C397.915 216.946 391.515 214.832 384.624 214.832C365.022 214.832 349.142 231.447 349.142 251.954C349.142 272.461 365.022 289.108 384.624 289.108C391.312 289.108 397.504 287.038 402.847 283.67L402.815 288.289L423.003 288.289L423.615 214.635L403.395 214.635ZM384.624 235.047C393.552 235.047 400.819 242.645 400.819 251.987C400.819 261.328 393.552 268.893 384.624 268.893C375.695 268.893 368.46 261.328 368.46 251.987C368.46 242.645 375.695 235.047 384.624 235.047Z" fill="#00c0ff" fill-rule="nonzero" opacity="1" stroke="none"/>
<path d="M727.459 160.69C720.214 153.106 708.931 146.535 708.517 146.477C704.185 145.871 689.16 146.054 686.219 150.699C682.429 156.687 692.178 178.526 701.85 179.958C711.272 181.354 719.394 183.427 739.541 179.623C738.937 176.885 733.752 167.277 727.459 160.69Z" fill="#fdd44f" fill-rule="nonzero" opacity="1" stroke="none"/>
</g>
</svg>
